<svg width="187" height="34" viewBox="0 0 187 34" fill="none" xmlns="http://www.w3.org/2000/svg">
<path d="M42.2089 15.7818L42.0419 14.9422H41.9584C41.8146 15.1231 41.6152 15.2901 41.3693 15.4478C40.8312 15.7818 40.2142 15.9535 39.523 15.9535C38.5814 15.9535 37.8299 15.703 37.2639 15.1973C36.698 14.6917 36.415 14.0794 36.415 13.3511C36.415 12.479 36.7165 11.7831 37.3242 11.2682C37.9273 10.7533 38.804 10.4982 39.9452 10.4982H41.8749V10.3312C41.8749 9.84874 41.7358 9.46372 41.4621 9.17147C41.1884 8.87922 40.8219 8.73542 40.3627 8.73542C39.9266 8.73542 39.5741 8.84675 39.3143 9.06941C39.0499 9.29208 38.8968 9.54722 38.8504 9.82555H36.7537C36.8557 9.0555 37.2129 8.39678 37.8299 7.86331C38.4468 7.3252 39.2911 7.05615 40.3673 7.05615C41.4435 7.05615 42.311 7.37159 42.979 7.99784C43.647 8.62409 43.9764 9.40341 43.9764 10.3312V15.7865H42.2089V15.7818ZM41.8749 12.3398V12.0893H40.1122C39.0499 12.0893 38.5164 12.4511 38.5164 13.1794C38.5164 13.5134 38.6324 13.7825 38.869 13.9773C39.1055 14.1722 39.4349 14.2696 39.857 14.2696C40.4972 14.2696 40.9889 14.0979 41.3415 13.7593C41.6987 13.416 41.8749 12.9429 41.8749 12.3398Z" fill="#1B6D67"/>
<path d="M45.3176 15.7812V4.02637H47.4143V8.14103H47.4978C47.6556 7.94156 47.8504 7.76064 48.087 7.60292C48.6343 7.23181 49.2513 7.0509 49.9332 7.0509C51.0512 7.0509 51.9882 7.46376 52.7444 8.28483C53.5005 9.10591 53.8763 10.1775 53.8763 11.4996C53.8763 12.8216 53.5005 13.8932 52.7444 14.7143C51.9882 15.5354 51.0512 15.9482 49.9332 15.9482C49.1957 15.9482 48.5555 15.7673 48.0174 15.4101C47.7808 15.2524 47.5813 15.0668 47.4143 14.8581H47.3308L47.1638 15.7812H45.3176ZM48.0174 13.3551C48.421 13.7958 48.9452 14.0185 49.5946 14.0185C50.244 14.0185 50.7682 13.7958 51.1718 13.3551C51.5754 12.9144 51.7749 12.2928 51.7749 11.4996C51.7749 10.7063 51.5754 10.0847 51.1718 9.64401C50.7682 9.20332 50.244 8.98066 49.5946 8.98066C48.9452 8.98066 48.421 9.20332 48.0174 9.64401C47.6138 10.0847 47.4143 10.7063 47.4143 11.4996C47.4143 12.2928 47.6184 12.9098 48.0174 13.3551Z" fill="#1B6D67"/>
<path d="M54.8873 15.7812V4.02637H56.984V8.14103H57.0675C57.2253 7.94156 57.4201 7.76064 57.6567 7.60292C58.2041 7.23181 58.821 7.0509 59.5029 7.0509C60.6209 7.0509 61.5579 7.46376 62.3141 8.28483C63.0702 9.10591 63.446 10.1775 63.446 11.4996C63.446 12.8216 63.0702 13.8932 62.3141 14.7143C61.5579 15.5354 60.6209 15.9482 59.5029 15.9482C58.7654 15.9482 58.1252 15.7673 57.5871 15.4101C57.3505 15.2524 57.151 15.0668 56.984 14.8581H56.9005L56.7335 15.7812H54.8873ZM57.5917 13.3551C57.9953 13.7958 58.5195 14.0185 59.1689 14.0185C59.8184 14.0185 60.3426 13.7958 60.7461 13.3551C61.1497 12.9144 61.3492 12.2928 61.3492 11.4996C61.3492 10.7063 61.1497 10.0847 60.7461 9.64401C60.3426 9.20332 59.8184 8.98066 59.1689 8.98066C58.5195 8.98066 57.9953 9.20332 57.5917 9.64401C57.1881 10.0847 56.9887 10.7063 56.9887 11.4996C56.984 12.2928 57.1881 12.9098 57.5917 13.3551Z" fill="#1B6D67"/>
<path d="M69.7447 15.7818L69.5777 14.9422H69.4942C69.3504 15.1231 69.151 15.2901 68.9051 15.4478C68.367 15.7818 67.75 15.9535 67.0588 15.9535C66.1171 15.9535 65.3657 15.703 64.7997 15.1973C64.2338 14.6917 63.9508 14.0794 63.9508 13.3511C63.9508 12.479 64.2523 11.7831 64.86 11.2682C65.4631 10.7533 66.3398 10.4982 67.481 10.4982H69.4107V10.3312C69.4107 9.84874 69.2716 9.46372 68.9979 9.17147C68.7242 8.87922 68.3577 8.73542 67.8985 8.73542C67.4624 8.73542 67.1099 8.84675 66.8501 9.06941C66.5857 9.29208 66.4326 9.54722 66.3862 9.82555H64.2894C64.3915 9.0555 64.7487 8.39678 65.3657 7.86331C65.9826 7.3252 66.8269 7.05615 67.9031 7.05615C68.9793 7.05615 69.8468 7.37159 70.5148 7.99784C71.1828 8.62409 71.5121 9.40341 71.5121 10.3312V15.7865H69.7447V15.7818ZM69.4107 12.3398V12.0893H67.648C66.5857 12.0893 66.0522 12.4511 66.0522 13.1794C66.0522 13.5134 66.1682 13.7825 66.4048 13.9773C66.6413 14.1722 66.9707 14.2696 67.3928 14.2696C68.033 14.2696 68.5247 14.0979 68.8773 13.7593C69.2345 13.416 69.4107 12.9429 69.4107 12.3398Z" fill="#1B6D67"/>
<path d="M42.2751 26.3064H44.3116C44.2374 26.6775 44.1121 27.0347 43.9451 27.3826C43.7781 27.7305 43.5462 28.0738 43.254 28.417C42.9617 28.7603 42.5674 29.034 42.071 29.2474C41.5793 29.4608 41.0227 29.5629 40.401 29.5629C39.1764 29.5629 38.1605 29.1593 37.3672 28.3521C36.5694 27.5449 36.1704 26.5105 36.1704 25.2487C36.1704 23.9916 36.5694 22.9571 37.3672 22.1453C38.1651 21.3382 39.1764 20.9346 40.401 20.9346C41.018 20.9346 41.5747 21.0413 42.071 21.25C42.5628 21.4634 42.9571 21.7371 43.254 22.0711C43.5462 22.4097 43.7781 22.7437 43.9451 23.0824C44.1121 23.421 44.2374 23.7596 44.3116 24.1075H42.2751C41.9504 23.2401 41.3242 22.804 40.401 22.804C39.7841 22.804 39.2599 23.0313 38.8378 23.4859C38.4156 23.9405 38.2022 24.5297 38.2022 25.2441C38.2022 25.9584 38.4156 26.5476 38.8378 27.0022C39.2599 27.4568 39.7841 27.6841 40.401 27.6841C41.3613 27.6887 41.9829 27.2295 42.2751 26.3064Z" fill="#1B6D67"/>
<path d="M45.9168 22.1453C46.7147 21.3382 47.726 20.9346 48.9506 20.9346C50.1753 20.9346 51.1912 21.3382 51.9891 22.1453C52.7869 22.9525 53.1859 23.9869 53.1859 25.2487C53.1859 26.5058 52.7869 27.5403 51.9891 28.3521C51.1912 29.1593 50.1799 29.5629 48.9506 29.5629C47.726 29.5629 46.71 29.1593 45.9168 28.3521C45.1189 27.5449 44.72 26.5105 44.72 25.2487C44.72 23.9916 45.1189 22.9571 45.9168 22.1453ZM47.3873 27.0068C47.8094 27.4615 48.3337 27.6887 48.9506 27.6887C49.5676 27.6887 50.0918 27.4615 50.5139 27.0068C50.936 26.5522 51.1494 25.9631 51.1494 25.2487C51.1494 24.5343 50.936 23.9452 50.5139 23.4906C50.0918 23.036 49.5676 22.8087 48.9506 22.8087C48.3337 22.8087 47.8094 23.036 47.3873 23.4906C46.9652 23.9452 46.7518 24.5343 46.7518 25.2487C46.7564 25.9677 46.9652 26.5522 47.3873 27.0068Z" fill="#1B6D67"/>
<path d="M60.1839 29.4055L60.0216 28.5102H59.938C59.7757 28.7189 59.5809 28.8952 59.3536 29.0483C58.834 29.3962 58.2124 29.5679 57.498 29.5679C56.4125 29.5679 55.5033 29.1689 54.7704 28.371C54.0374 27.5731 53.671 26.534 53.671 25.2537C53.671 23.9734 54.0374 22.9343 54.7704 22.1364C55.5033 21.3385 56.4125 20.9396 57.498 20.9396C58.1475 20.9396 58.7459 21.1205 59.2886 21.4777C59.5159 21.6308 59.7061 21.8024 59.8592 21.9972H59.9427V18.0078H61.9792V29.4055H60.1839ZM56.2919 27.0536C56.6816 27.4804 57.1918 27.6984 57.8227 27.6984C58.4536 27.6984 58.9639 27.485 59.3536 27.0536C59.7432 26.6268 59.938 26.0238 59.938 25.2537C59.938 24.4837 59.7432 23.8853 59.3536 23.4538C58.9639 23.0271 58.4536 22.809 57.8227 22.809C57.1918 22.809 56.6816 23.0224 56.2919 23.4538C55.9022 23.8806 55.7074 24.4837 55.7074 25.2537C55.7074 26.0238 55.9022 26.6222 56.2919 27.0536Z" fill="#1B6D67"/>
<path d="M63.2795 19.7957V17.8428H65.4784V19.7957H63.2795ZM63.3584 29.4028V21.0992H65.3949V29.4028H63.3584Z" fill="#1B6D67"/>
<path d="M66.699 29.4005V21.0969H68.5731L68.7354 21.9087H68.8189C68.9488 21.7464 69.1344 21.584 69.371 21.4217C69.872 21.0969 70.4472 20.9346 71.0966 20.9346C72.0429 20.9346 72.8176 21.2593 73.4346 21.9041C74.0469 22.5489 74.3531 23.3932 74.3531 24.4369V29.4005H72.3166V24.5993C72.3166 24.0658 72.1496 23.6344 71.8203 23.305C71.4909 22.9757 71.0595 22.8087 70.526 22.8087C69.9926 22.8087 69.5612 22.9757 69.2318 23.305C68.9024 23.6344 68.7354 24.0658 68.7354 24.5993V29.4005H66.699Z" fill="#1B6D67"/>
<path d="M75.4071 29.8111H77.5224C77.5641 29.9828 77.6383 30.1544 77.7358 30.3168C77.8332 30.4791 78.0187 30.6415 78.2971 30.7992C78.5754 30.9569 78.914 31.0358 79.313 31.0358C79.8975 31.0358 80.3706 30.8688 80.7278 30.5302C81.085 30.1915 81.2659 29.7369 81.2659 29.1617V28.0205H81.1824C81.0525 28.1736 80.867 28.3267 80.6304 28.4751C80.1851 28.7674 79.6098 28.9158 78.9047 28.9158C77.8285 28.9158 76.9379 28.5447 76.2281 27.8025C75.5184 27.0603 75.1612 26.1 75.1612 24.9311C75.1612 23.7574 75.5184 22.8018 76.2281 22.0596C76.9379 21.3174 77.8332 20.9463 78.9047 20.9463C79.5774 20.9463 80.1758 21.1086 80.6953 21.4334C80.9319 21.5864 81.1221 21.7488 81.2659 21.9204H81.3494L81.5118 21.1086H83.3024V29.1849C83.3024 30.2797 82.9406 31.161 82.2215 31.829C81.4979 32.497 80.533 32.831 79.3176 32.831C78.7099 32.831 78.1625 32.7429 77.6754 32.5713C77.1884 32.395 76.808 32.1862 76.5343 31.9357C76.2652 31.6852 76.0379 31.4162 75.857 31.1239C75.6761 30.8317 75.5601 30.5765 75.4998 30.3585C75.4395 30.1312 75.4071 29.9503 75.4071 29.8111ZM80.6861 23.3446C80.2964 22.9317 79.814 22.7276 79.2387 22.7276C78.6635 22.7276 78.1811 22.9317 77.7914 23.3446C77.4018 23.7574 77.2069 24.2816 77.2069 24.9218C77.2069 25.562 77.4018 26.0908 77.7914 26.499C78.1811 26.9118 78.6635 27.116 79.2387 27.116C79.814 27.116 80.2964 26.9118 80.6861 26.499C81.0757 26.0861 81.2706 25.562 81.2706 24.9218C81.2706 24.2863 81.0757 23.7574 80.6861 23.3446Z" fill="#1B6D67"/>
<path d="M0.841205 22.6608C2.6318 20.847 4.9002 19.9378 7.65568 19.9378C9.0427 19.9378 10.2906 20.1744 11.3992 20.6522C12.5079 21.1254 13.3893 21.7423 14.048 22.4985C14.7067 23.2546 15.2217 24.0107 15.602 24.7622C15.9778 25.5183 16.2515 26.2838 16.4231 27.0631H11.8585C11.1255 25.1148 9.72461 24.1406 7.65568 24.1406C6.26866 24.1406 5.09967 24.6509 4.1487 25.6761C3.19774 26.6966 2.72458 28.014 2.72458 29.6237C2.72458 31.2334 3.19774 32.5462 4.1487 33.5714C4.26931 33.7013 4.38993 33.8219 4.51981 33.9332H10.0586H10.7684C11.2415 33.4415 11.608 32.8014 11.8631 31.9988H16.4278C16.2932 32.6576 16.0891 33.3024 15.8201 33.9332H30.6273L18.9513 0H8.3747L0.655646 22.4382L0.405151 23.1711C0.539678 22.9948 0.683484 22.8232 0.841205 22.6608Z" fill="#1B6D67"/>
<path d="M149.974 16.3717L149.809 15.5415H149.726C149.584 15.7204 149.387 15.8855 149.144 16.0415C148.612 16.3717 148.002 16.5414 147.318 16.5414C146.387 16.5414 145.644 16.2938 145.085 15.7938C144.525 15.2939 144.245 14.6884 144.245 13.9683C144.245 13.106 144.543 12.418 145.144 11.9089C145.74 11.3997 146.607 11.1475 147.736 11.1475H149.644V10.9824C149.644 10.5053 149.506 10.1246 149.236 9.83568C148.965 9.54672 148.603 9.40453 148.148 9.40453C147.717 9.40453 147.369 9.51461 147.112 9.73477C146.85 9.95493 146.699 10.2072 146.653 10.4824H144.58C144.681 9.72101 145.034 9.0697 145.644 8.54223C146.254 8.01017 147.089 7.74414 148.153 7.74414C149.217 7.74414 150.075 8.05604 150.735 8.67524C151.396 9.29445 151.722 10.065 151.722 10.9824V16.3763H149.974V16.3717ZM149.644 12.9684V12.7207H147.901C146.85 12.7207 146.323 13.0785 146.323 13.7986C146.323 14.1288 146.438 14.3949 146.672 14.5875C146.905 14.7802 147.231 14.8765 147.649 14.8765C148.281 14.8765 148.768 14.7068 149.116 14.3719C149.469 14.0325 149.644 13.5647 149.644 12.9684Z" fill="#1B6D67"/>
<path d="M153.047 16.3722V4.74951H155.12V8.81792H155.203C155.359 8.62069 155.551 8.44181 155.785 8.28587C156.326 7.91893 156.936 7.74005 157.611 7.74005C158.716 7.74005 159.643 8.14827 160.39 8.96011C161.138 9.77196 161.509 10.8315 161.509 12.1387C161.509 13.4459 161.138 14.5054 160.39 15.3173C159.643 16.1291 158.716 16.5374 157.611 16.5374C156.881 16.5374 156.248 16.3585 155.716 16.0053C155.482 15.8494 155.285 15.6659 155.12 15.4595H155.038L154.872 16.3722H153.047ZM155.716 13.9734C156.115 14.4091 156.634 14.6293 157.276 14.6293C157.918 14.6293 158.436 14.4091 158.835 13.9734C159.234 13.5376 159.432 12.923 159.432 12.1387C159.432 11.3544 159.234 10.7398 158.835 10.304C158.436 9.86828 157.918 9.64812 157.276 9.64812C156.634 9.64812 156.115 9.86828 155.716 10.304C155.317 10.7398 155.12 11.3544 155.12 12.1387C155.12 12.923 155.322 13.5376 155.716 13.9734Z" fill="#1B6D67"/>
<path d="M162.51 16.3722V4.74951H164.583V8.81792H164.666C164.822 8.62069 165.014 8.44181 165.248 8.28587C165.789 7.91893 166.399 7.74005 167.074 7.74005C168.179 7.74005 169.106 8.14827 169.853 8.96011C170.601 9.77196 170.972 10.8315 170.972 12.1387C170.972 13.4459 170.601 14.5054 169.853 15.3173C169.106 16.1291 168.179 16.5374 167.074 16.5374C166.344 16.5374 165.711 16.3585 165.179 16.0053C164.945 15.8494 164.748 15.6659 164.583 15.4595H164.501L164.335 16.3722H162.51ZM165.179 13.9734C165.578 14.4091 166.097 14.6293 166.739 14.6293C167.381 14.6293 167.899 14.4091 168.298 13.9734C168.697 13.5376 168.895 12.923 168.895 12.1387C168.895 11.3544 168.697 10.7398 168.298 10.304C167.899 9.86828 167.381 9.64812 166.739 9.64812C166.097 9.64812 165.578 9.86828 165.179 10.304C164.78 10.7398 164.583 11.3544 164.583 12.1387C164.583 12.923 164.785 13.5376 165.179 13.9734Z" fill="#1B6D67"/>
<path d="M177.199 16.3717L177.034 15.5415H176.952C176.81 15.7204 176.612 15.8855 176.369 16.0415C175.837 16.3717 175.227 16.5414 174.544 16.5414C173.613 16.5414 172.87 16.2938 172.31 15.7938C171.75 15.2939 171.471 14.6884 171.471 13.9683C171.471 13.106 171.769 12.418 172.37 11.9089C172.966 11.3997 173.833 11.1475 174.961 11.1475H176.869V10.9824C176.869 10.5053 176.732 10.1246 176.461 9.83568C176.19 9.54672 175.828 9.40453 175.374 9.40453C174.943 9.40453 174.594 9.51461 174.337 9.73477C174.076 9.95493 173.925 10.2072 173.879 10.4824H171.805C171.906 9.72101 172.26 9.0697 172.87 8.54223C173.48 8.01017 174.314 7.74414 175.379 7.74414C176.443 7.74414 177.3 8.05604 177.961 8.67524C178.621 9.29445 178.947 10.065 178.947 10.9824V16.3763H177.199V16.3717ZM176.869 12.9684V12.7207H175.126C174.076 12.7207 173.548 13.0785 173.548 13.7986C173.548 14.1288 173.663 14.3949 173.897 14.5875C174.131 14.7802 174.457 14.8765 174.874 14.8765C175.507 14.8765 175.993 14.7068 176.342 14.3719C176.695 14.0325 176.869 13.5647 176.869 12.9684Z" fill="#1B6D67"/>
<path d="M144.663 28.6265V20.1595H146.571L146.736 20.9896H146.819C146.952 20.8108 147.117 20.6456 147.319 20.4897C147.759 20.1595 148.259 19.9897 148.814 19.9897C149.479 19.9897 150.071 20.1824 150.589 20.5723C150.823 20.7695 151.002 20.9667 151.135 21.1548H151.218C151.36 20.9667 151.562 20.7741 151.814 20.5723C152.355 20.187 152.988 19.9897 153.708 19.9897C154.584 19.9897 155.327 20.32 155.942 20.9759C156.556 21.6318 156.864 22.439 156.864 23.3931V28.6219H154.791V23.5628C154.791 23.0307 154.662 22.6225 154.41 22.3336C154.158 22.0446 153.814 21.9024 153.382 21.9024C152.919 21.9024 152.539 22.0584 152.245 22.3748C151.951 22.6913 151.805 23.0858 151.805 23.5628V28.6265H149.731V23.5628C149.731 23.0307 149.603 22.6225 149.351 22.3336C149.094 22.0446 148.754 21.9024 148.323 21.9024C147.86 21.9024 147.479 22.0584 147.186 22.3748C146.892 22.6913 146.746 23.0858 146.746 23.5628V28.6265H144.663Z" fill="#1B6D67"/>
<path d="M163.751 26.1386H165.912C165.857 26.3496 165.747 26.5835 165.586 26.8449C165.426 27.1064 165.201 27.3907 164.907 27.7072C164.614 28.0237 164.215 28.2806 163.705 28.487C163.196 28.6934 162.632 28.7943 162.013 28.7943C160.761 28.7943 159.729 28.3815 158.917 27.5559C158.105 26.7303 157.697 25.6753 157.697 24.391C157.697 23.1068 158.105 22.0518 158.917 21.2262C159.729 20.4006 160.761 19.9878 162.013 19.9878C163.173 19.9878 164.155 20.396 164.958 21.2079C165.76 22.0197 166.159 23.0242 166.159 24.2213C166.159 24.3222 166.141 24.5195 166.109 24.8176L166.077 25.0515H159.77C159.857 25.6478 160.11 26.1294 160.518 26.4963C160.926 26.8633 161.426 27.0422 162.013 27.0422C162.453 27.0422 162.829 26.9458 163.141 26.7532C163.449 26.5651 163.655 26.3587 163.751 26.1386ZM159.77 23.648H164.086C163.985 23.0838 163.756 22.6252 163.398 22.272C163.04 21.9188 162.577 21.7399 162.013 21.7399C161.417 21.7399 160.926 21.9142 160.545 22.2628C160.16 22.6068 159.903 23.0701 159.77 23.648Z" fill="#1B6D67"/>
<path d="M173.297 28.6288L173.131 27.716H173.049C172.884 27.927 172.682 28.1105 172.453 28.2618C171.921 28.615 171.292 28.7939 170.558 28.7939C169.453 28.7939 168.526 28.3857 167.779 27.5738C167.031 26.762 166.66 25.7025 166.66 24.3952C166.66 23.088 167.031 22.0285 167.779 21.2167C168.526 20.4048 169.453 19.9966 170.558 19.9966C171.223 19.9966 171.829 20.1801 172.384 20.5424C172.618 20.6984 172.81 20.8727 172.966 21.0745H173.049V18.0151H175.122V28.6288H173.297ZM169.329 26.2299C169.728 26.6657 170.246 26.8858 170.889 26.8858C171.531 26.8858 172.049 26.6657 172.448 26.2299C172.847 25.7942 173.044 25.1796 173.044 24.3952C173.044 23.6109 172.847 22.9963 172.448 22.5606C172.049 22.1248 171.531 21.9047 170.889 21.9047C170.246 21.9047 169.728 22.1248 169.329 22.5606C168.93 22.9963 168.733 23.6109 168.733 24.3952C168.733 25.1796 168.935 25.7896 169.329 26.2299Z" fill="#1B6D67"/>
<path d="M176.536 28.6292V20.1621H178.609V28.6292H176.536Z" fill="#1B6D67"/>
<path d="M185.25 28.6291L185.084 27.7989H185.002C184.86 27.9778 184.662 28.1429 184.419 28.2988C183.887 28.6291 183.277 28.7988 182.594 28.7988C181.663 28.7988 180.92 28.5511 180.36 28.0511C179.801 27.5512 179.521 26.9457 179.521 26.2256C179.521 25.3633 179.819 24.6753 180.42 24.1662C181.016 23.6571 181.883 23.4048 183.011 23.4048H184.919V23.2397C184.919 22.7627 184.782 22.382 184.511 22.093C184.24 21.804 183.878 21.6619 183.424 21.6619C182.993 21.6619 182.644 21.7719 182.387 21.9921C182.126 22.2123 181.975 22.4645 181.929 22.7397H179.856C179.956 21.9783 180.31 21.327 180.92 20.7996C181.53 20.2675 182.365 20.0015 183.429 20.0015C184.493 20.0015 185.35 20.3134 186.011 20.9326C186.671 21.5518 186.997 22.3223 186.997 23.2397V28.6337H185.25V28.6291ZM184.919 25.2257V24.978H183.176C182.126 24.978 181.599 25.3358 181.599 26.0559C181.599 26.3862 181.713 26.6522 181.947 26.8448C182.181 27.0375 182.507 27.1338 182.924 27.1338C183.557 27.1338 184.043 26.9641 184.392 26.6293C184.745 26.2898 184.919 25.822 184.919 25.2257Z" fill="#1B6D67"/>
<path d="M116.782 24.9155C115.938 24.9155 115.25 25.1999 114.714 25.7732C114.182 26.3466 113.916 27.0667 113.916 27.9336V33.5523H119.351V27.9336C119.351 26.9704 119.117 26.2227 118.658 25.6999C118.195 25.177 117.567 24.9155 116.782 24.9155Z" fill="#1B6D67"/>
<path d="M111.715 22.4978C112.137 22.8602 112.472 23.2133 112.71 23.5528H112.862C113.123 23.2133 113.486 22.8602 113.949 22.4978C114.935 21.796 116.082 21.4429 117.389 21.4429C118.98 21.4429 120.334 22.0437 121.448 23.2409C122.567 24.438 123.122 25.9011 123.122 27.6303V33.5518H138.515L126.97 0H116.513L109.119 21.4796C110.068 21.5851 110.935 21.9199 111.715 22.4978Z" fill="#1B6D67"/>
<path d="M110.145 27.9328C110.145 26.9696 109.915 26.222 109.452 25.6991C109.058 25.2542 108.553 25.0019 107.929 24.9331L104.966 33.5515H110.149V27.9328H110.145Z" fill="#1B6D67"/>
</svg>
