<svg width="48" height="28" viewBox="0 0 48 28" fill="none" xmlns="http://www.w3.org/2000/svg">
<path d="M13.0001 24H9.00006C8.44806 24 8.00006 23.552 8.00006 23C8.00006 22.448 8.44806 22 9.00006 22H13.0001C13.5521 22 14.0001 22.448 14.0001 23C14.0001 23.552 13.5521 24 13.0001 24Z" fill="white"/>
<path d="M45.4991 24H42.9991C42.4471 24 41.9991 23.552 41.9991 23C41.9991 22.448 42.4471 22 42.9991 22H44.6691L46.0171 14.816C45.9991 11.14 42.8591 8 38.9991 8H32.4331L29.2511 22H34.9991C35.5511 22 35.9991 22.448 35.9991 23C35.9991 23.552 35.5511 24 34.9991 24H27.9991C27.6951 24 27.4071 23.862 27.2171 23.624C27.0271 23.388 26.9551 23.076 27.0231 22.78L30.6591 6.78C30.7631 6.322 31.1671 6 31.6351 6H38.9991C43.9611 6 47.9991 10.038 47.9991 15L46.4811 23.184C46.3931 23.658 45.9811 24 45.4991 24Z" fill="white"/>
<path d="M38.9999 28C36.2439 28 33.9999 25.758 33.9999 23C33.9999 20.242 36.2439 18 38.9999 18C41.7559 18 43.9999 20.242 43.9999 23C43.9999 25.758 41.7559 28 38.9999 28ZM38.9999 20C37.3459 20 35.9999 21.346 35.9999 23C35.9999 24.654 37.3459 26 38.9999 26C40.6539 26 41.9999 24.654 41.9999 23C41.9999 21.346 40.6539 20 38.9999 20Z" fill="white"/>
<path d="M17 28C14.244 28 12 25.758 12 23C12 20.242 14.244 18 17 18C19.756 18 22 20.242 22 23C22 25.758 19.756 28 17 28ZM17 20C15.346 20 14 21.346 14 23C14 24.654 15.346 26 17 26C18.654 26 20 24.654 20 23C20 21.346 18.654 20 17 20Z" fill="white"/>
<path d="M12.9999 6.00001H4.99994C4.44794 6.00001 3.99994 5.552 3.99994 5C3.99994 4.448 4.44794 4 4.99994 4H12.9999C13.5519 4 13.9999 4.448 13.9999 5C13.9999 5.552 13.5519 6.00001 12.9999 6.00001Z" fill="white"/>
<path d="M13.0001 12H3.00006C2.44806 12 2.00006 11.552 2.00006 11C2.00006 10.448 2.44806 10 3.00006 10H13.0001C13.5521 10 14.0001 10.448 14.0001 11C14.0001 11.552 13.5521 12 13.0001 12Z" fill="white"/>
<path d="M13 18H1C0.448 18 0 17.552 0 17C0 16.448 0.448 16 1 16H13C13.552 16 14 16.448 14 17C14 17.552 13.552 18 13 18Z" fill="white"/>
<path d="M28.0001 24H21.0001C20.4481 24 20.0001 23.552 20.0001 23C20.0001 22.448 20.4481 22 21.0001 22H27.2021L31.7461 2H9.00006C8.44806 2 8.00006 1.552 8.00006 1C8.00006 0.448 8.44806 0 9.00006 0H33.0001C33.3041 0 33.5921 0.138 33.7821 0.376C33.9721 0.612 34.0441 0.924 33.9761 1.22L28.9761 23.22C28.8721 23.678 28.4661 24 28.0001 24Z" fill="white"/>
</svg>
