<svg width="48" height="48" viewBox="0 0 48 48" fill="none" xmlns="http://www.w3.org/2000/svg">
<g clip-path="url(#clip0_0_286)">
<path d="M24 48C37.2341 48 48 37.2341 48 24C48.0058 20.8258 47.3782 17.6822 46.1531 14.7537C46.0244 14.438 45.7357 14.2151 45.3978 14.1711C45.0593 14.1266 44.723 14.267 44.5169 14.5387C44.3114 14.8109 44.2669 15.1727 44.4015 15.4862C45.5297 18.1827 46.1075 21.0773 46.1017 24C46.1017 36.187 36.187 46.1017 24 46.1017C11.813 46.1017 1.8983 36.187 1.8983 24C1.8983 11.813 11.813 1.89832 24 1.89832C26.4767 1.89514 28.9364 2.30934 31.2754 3.12396C31.5959 3.23783 31.9534 3.1711 32.2113 2.94917C32.4693 2.72777 32.589 2.38455 32.5249 2.05033C32.4608 1.71612 32.2225 1.44175 31.9004 1.33158C29.3602 0.447051 26.6896 -0.00316126 24 1.67074e-05C10.7659 1.67074e-05 0 10.7659 0 24C0 37.2341 10.7659 48 24 48Z" fill="white"/>
<path d="M33.4094 6.17348C33.0387 5.80272 32.4375 5.80272 32.0667 6.17348C31.6965 6.54425 31.6965 7.14541 32.0667 7.51618L36.4836 11.933C36.8485 12.298 37.4375 12.3043 37.8104 11.9478L45.5969 4.51088C45.8459 4.2773 45.9502 3.92825 45.8708 3.59668C45.7908 3.26512 45.5392 3.00135 45.2113 2.90654C44.884 2.81173 44.5307 2.90018 44.286 3.138L37.17 9.93461L33.4094 6.17348Z" fill="white"/>
<path d="M24.0001 14.8198C26.2405 14.8225 28.0562 16.6381 28.0589 18.8786C28.0589 19.403 28.4837 19.8278 29.008 19.8278C29.5324 19.8278 29.9572 19.403 29.9572 18.8786C29.9535 15.9565 27.8332 13.4671 24.9492 12.9978V11.1191C24.9492 10.5947 24.5244 10.1699 24.0001 10.1699C23.4757 10.1699 23.0509 10.5947 23.0509 11.1191V12.9978C19.9863 13.4941 17.8163 16.26 18.0647 19.3548C18.3126 22.4491 20.8957 24.8341 24.0001 24.8352C26.2321 24.8352 28.0456 26.6376 28.0583 28.8701C28.0716 31.1021 26.2792 32.9257 24.0472 32.9517C24.0313 32.9506 24.016 32.9491 24.0001 32.9491C23.9842 32.9491 23.9688 32.9506 23.9529 32.9517C21.731 32.9236 19.9439 31.1159 19.9413 28.894C19.9413 28.3696 19.5165 27.9448 18.9921 27.9448C18.4678 27.9448 18.043 28.3696 18.043 28.894C18.0467 31.8161 20.1664 34.3055 23.0509 34.7748V36.8818C23.0509 37.4062 23.4757 37.8309 24.0001 37.8309C24.5244 37.8309 24.9492 37.4062 24.9492 36.8818V34.7748C28.0144 34.2801 30.1855 31.5131 29.9371 28.4183C29.6892 25.3235 27.1049 22.9379 24.0001 22.9379C22.5446 22.9459 21.1955 22.1742 20.4656 20.9152C19.7352 19.6556 19.7352 18.1021 20.4656 16.8426C21.1955 15.5836 22.5446 14.8119 24.0001 14.8203V14.8198Z" fill="white"/>
</g>
<defs>
<clipPath id="clip0_0_286">
<rect width="48" height="48" fill="white"/>
</clipPath>
</defs>
</svg>
