<svg width="48" height="48" viewBox="0 0 48 48" fill="none" xmlns="http://www.w3.org/2000/svg">
<g clip-path="url(#clip0_0_270)">
<path d="M19.2976 6.88234C15.1042 2.69108 6.89824 2.20508 1.0898 2.20508C0.488251 2.20508 0 2.69323 0 3.29478C0 9.10322 0.483858 17.3092 4.67726 21.5027C6.44708 23.2725 9.16061 24.0637 11.8501 24.0637C14.7729 24.0637 17.6695 23.1287 19.2976 21.5005C22.4209 18.3772 22.9942 10.5767 19.2976 6.88234ZM17.7567 19.9617C15.4246 22.2916 8.94922 22.6905 6.22047 19.9617C2.83562 16.577 2.24928 9.70048 2.18604 4.39112C7.4954 4.45436 14.3719 5.04059 17.7566 8.42545C20.4855 11.1542 20.0866 17.6318 17.7567 19.9617Z" fill="white"/>
<path d="M46.9105 6.51562C41.102 6.51562 32.896 6.99948 28.7025 11.1929C25.0061 14.8872 25.5792 22.6878 28.7025 25.8111C30.3307 27.4371 33.2251 28.3721 36.1479 28.3721C38.8374 28.3721 41.5488 27.5831 43.3229 25.8133C47.5141 21.6199 48.0002 13.414 48.0002 7.60543C48.0003 7.00388 47.512 6.51562 46.9105 6.51562ZM41.7776 24.2701C39.0489 26.9989 32.5713 26.6 30.2414 24.2701C27.9115 21.9402 27.5126 15.4626 30.2414 12.7339C33.6262 9.34899 40.5026 8.76276 45.812 8.69952C45.7488 14.011 45.1625 20.8875 41.7776 24.2701Z" fill="white"/>
<path d="M39.0391 15.9482C38.782 15.4011 38.0453 15.2138 37.5026 15.4665C29.1441 19.3962 25.0378 26.2487 23.172 33.293C20.8639 18.3151 14.188 13.749 11.3568 11.8114C11.0037 11.5695 10.7291 11.393 10.5765 11.2426C10.1515 10.8176 9.46056 10.8176 9.03555 11.2426C8.61054 11.6676 8.61054 12.3585 9.03555 12.7836C9.25133 12.9972 9.62403 13.2653 10.1275 13.6096C13.3183 15.7913 21.7945 21.5911 21.7945 44.7051C21.7945 45.3066 22.2828 45.7949 22.8843 45.7949C23.4859 45.7949 23.9742 45.3066 23.9742 44.7073C23.9742 35.368 26.4828 23.0558 38.431 17.4413C38.431 17.4392 38.6076 17.3563 38.6076 17.3563C39.1503 17.099 39.2963 16.4931 39.0391 15.9482Z" fill="white"/>
</g>
<defs>
<clipPath id="clip0_0_270">
<rect width="48" height="48" fill="white"/>
</clipPath>
</defs>
</svg>
