<svg width="295" height="775" viewBox="0 0 295 775" fill="none" xmlns="http://www.w3.org/2000/svg">
<path d="M-333 -30.668H-333.5V-30.168V774.001V774.501H-333H-167.306H-166.806V774.001V476.804H-36.0113L116.138 774.228L116.277 774.501H116.583H293.876H294.376V774.001V766.268V766.144L294.318 766.035L120.509 436.521C142.827 426.422 162.977 414.408 180.958 400.48L180.959 400.479C207.532 379.811 228.017 354.158 242.411 323.526C257.178 292.515 264.551 255.433 264.551 212.298C264.551 159.567 252.566 115.096 228.567 78.9138C204.573 42.7374 170.247 15.4302 125.613 -3.01383C81.352 -21.4558 28.4453 -30.668 -33.0937 -30.668H-333ZM-31.9891 346.562H-166.806V100.126H-33.0937C-3.68988 100.126 20.7122 105.088 40.1371 114.984C59.562 124.879 74.0278 139.165 83.5513 157.846C93.0818 176.54 97.8569 198.736 97.8569 224.449C97.8569 248.681 92.9008 269.953 83.0045 288.279L83.0009 288.286C73.476 306.603 59.19 320.893 40.127 331.157C21.0734 341.417 -2.95645 346.562 -31.9891 346.562Z" stroke="white"/>
</svg>
