<svg width="23" height="17" viewBox="0 0 23 17" fill="none" xmlns="http://www.w3.org/2000/svg">
<path d="M19.4164 4.15533H16.435V0.180176H2.522C1.42883 0.180176 0.534424 1.07459 0.534424 2.16775V13.0994H2.522C2.522 14.7491 3.85368 16.0808 5.50337 16.0808C7.15306 16.0808 8.48473 14.7491 8.48473 13.0994H14.4475C14.4475 14.7491 15.7791 16.0808 17.4288 16.0808C19.0785 16.0808 20.4102 14.7491 20.4102 13.0994H22.3978V8.13049L19.4164 4.15533ZM18.9195 5.64601L20.8673 8.13049H16.435V5.64601H18.9195ZM5.50337 14.0932C4.95678 14.0932 4.50958 13.646 4.50958 13.0994C4.50958 12.5528 4.95678 12.1056 5.50337 12.1056C6.04995 12.1056 6.49716 12.5528 6.49716 13.0994C6.49716 13.646 6.04995 14.0932 5.50337 14.0932ZM7.70958 11.1119C7.163 10.5056 6.38784 10.1181 5.50337 10.1181C4.6189 10.1181 3.84374 10.5056 3.29716 11.1119H2.522V2.16775H14.4475V11.1119H7.70958ZM17.4288 14.0932C16.8822 14.0932 16.435 13.646 16.435 13.0994C16.435 12.5528 16.8822 12.1056 17.4288 12.1056C17.9754 12.1056 18.4226 12.5528 18.4226 13.0994C18.4226 13.646 17.9754 14.0932 17.4288 14.0932Z" fill="#156963"/>
</svg>
